<mxfile host="app.diagrams.net" agent="Mozilla/5.0 (Windows NT 10.0; Win64; x64) AppleWebKit/537.36 (KHTML, like Gecko) Chrome/135.0.0.0 Safari/537.36" version="26.3.0">
  <diagram name="‫עמוד-1‬" id="-Mm3sBN-s7cBcJOc6oOY">
    <mxGraphModel dx="1426" dy="743" grid="1" gridSize="10" guides="1" tooltips="1" connect="1" arrows="1" fold="1" page="1" pageScale="1" pageWidth="827" pageHeight="1169" math="0" shadow="0">
      <root>
        <mxCell id="0" />
        <mxCell id="1" parent="0" />
        <mxCell id="2Lc5Fn0uC0BLHXgjS_Gs-1" value="Actor" style="shape=umlActor;verticalLabelPosition=bottom;verticalAlign=top;html=1;outlineConnect=0;" vertex="1" parent="1">
          <mxGeometry x="50" y="80" width="30" height="60" as="geometry" />
        </mxCell>
        <mxCell id="2Lc5Fn0uC0BLHXgjS_Gs-2" value="OTP" style="rounded=1;whiteSpace=wrap;html=1;" vertex="1" parent="1">
          <mxGeometry x="120" y="80" width="70" height="60" as="geometry" />
        </mxCell>
        <mxCell id="2Lc5Fn0uC0BLHXgjS_Gs-3" value="REG" style="rounded=1;whiteSpace=wrap;html=1;" vertex="1" parent="1">
          <mxGeometry x="310" y="80" width="70" height="60" as="geometry" />
        </mxCell>
        <mxCell id="2Lc5Fn0uC0BLHXgjS_Gs-4" value="GE" style="rounded=1;whiteSpace=wrap;html=1;" vertex="1" parent="1">
          <mxGeometry x="470" y="80" width="80" height="60" as="geometry" />
        </mxCell>
        <mxCell id="2Lc5Fn0uC0BLHXgjS_Gs-5" value="GIT" style="rounded=1;whiteSpace=wrap;html=1;" vertex="1" parent="1">
          <mxGeometry x="570" y="80" width="80" height="60" as="geometry" />
        </mxCell>
        <mxCell id="2Lc5Fn0uC0BLHXgjS_Gs-6" value="Hosting" style="rounded=1;whiteSpace=wrap;html=1;" vertex="1" parent="1">
          <mxGeometry x="670" y="80" width="80" height="60" as="geometry" />
        </mxCell>
        <mxCell id="2Lc5Fn0uC0BLHXgjS_Gs-7" value="SMS Provider" style="rounded=1;whiteSpace=wrap;html=1;" vertex="1" parent="1">
          <mxGeometry x="220" y="80" width="70" height="60" as="geometry" />
        </mxCell>
        <mxCell id="2Lc5Fn0uC0BLHXgjS_Gs-8" value="DB" style="rounded=1;whiteSpace=wrap;html=1;" vertex="1" parent="1">
          <mxGeometry x="400" y="80" width="60" height="60" as="geometry" />
        </mxCell>
        <mxCell id="2Lc5Fn0uC0BLHXgjS_Gs-9" value="" style="endArrow=none;dashed=1;html=1;dashPattern=1 3;strokeWidth=2;rounded=0;" edge="1" parent="1">
          <mxGeometry width="50" height="50" relative="1" as="geometry">
            <mxPoint x="70" y="270" as="sourcePoint" />
            <mxPoint x="70" y="180" as="targetPoint" />
          </mxGeometry>
        </mxCell>
        <mxCell id="2Lc5Fn0uC0BLHXgjS_Gs-10" value="" style="endArrow=none;dashed=1;html=1;dashPattern=1 3;strokeWidth=2;rounded=0;" edge="1" parent="1">
          <mxGeometry width="50" height="50" relative="1" as="geometry">
            <mxPoint x="160" y="270" as="sourcePoint" />
            <mxPoint x="160" y="180" as="targetPoint" />
          </mxGeometry>
        </mxCell>
        <mxCell id="2Lc5Fn0uC0BLHXgjS_Gs-11" value="" style="endArrow=classic;html=1;rounded=0;" edge="1" parent="1">
          <mxGeometry width="50" height="50" relative="1" as="geometry">
            <mxPoint x="100" y="220" as="sourcePoint" />
            <mxPoint x="140" y="220" as="targetPoint" />
          </mxGeometry>
        </mxCell>
        <mxCell id="2Lc5Fn0uC0BLHXgjS_Gs-12" value="setID" style="text;html=1;align=center;verticalAlign=middle;whiteSpace=wrap;rounded=0;" vertex="1" parent="1">
          <mxGeometry x="90" y="180" width="60" height="30" as="geometry" />
        </mxCell>
        <mxCell id="2Lc5Fn0uC0BLHXgjS_Gs-15" value="" style="endArrow=classic;html=1;rounded=0;" edge="1" parent="1">
          <mxGeometry width="50" height="50" relative="1" as="geometry">
            <mxPoint x="190" y="220" as="sourcePoint" />
            <mxPoint x="420" y="220" as="targetPoint" />
          </mxGeometry>
        </mxCell>
        <mxCell id="2Lc5Fn0uC0BLHXgjS_Gs-16" value="" style="endArrow=none;dashed=1;html=1;dashPattern=1 3;strokeWidth=2;rounded=0;" edge="1" parent="1">
          <mxGeometry width="50" height="50" relative="1" as="geometry">
            <mxPoint x="440" y="266" as="sourcePoint" />
            <mxPoint x="440" y="180" as="targetPoint" />
          </mxGeometry>
        </mxCell>
        <mxCell id="2Lc5Fn0uC0BLHXgjS_Gs-19" value="Check if id in customer tabel&amp;nbsp;" style="text;html=1;align=center;verticalAlign=middle;whiteSpace=wrap;rounded=0;" vertex="1" parent="1">
          <mxGeometry x="240" y="160" width="120" height="60" as="geometry" />
        </mxCell>
        <mxCell id="2Lc5Fn0uC0BLHXgjS_Gs-21" value="" style="shape=requiredInterface;html=1;verticalLabelPosition=bottom;sketch=0;strokeColor=none;" vertex="1" parent="1">
          <mxGeometry x="460" y="220" width="10" height="20" as="geometry" />
        </mxCell>
        <mxCell id="2Lc5Fn0uC0BLHXgjS_Gs-22" value="" style="shape=requiredInterface;html=1;verticalLabelPosition=bottom;sketch=0;" vertex="1" parent="1">
          <mxGeometry x="450" y="220" width="10" height="20" as="geometry" />
        </mxCell>
        <mxCell id="2Lc5Fn0uC0BLHXgjS_Gs-23" value="" style="endArrow=classic;html=1;rounded=0;" edge="1" parent="1">
          <mxGeometry width="50" height="50" relative="1" as="geometry">
            <mxPoint x="420" y="260" as="sourcePoint" />
            <mxPoint x="310" y="260" as="targetPoint" />
          </mxGeometry>
        </mxCell>
        <mxCell id="2Lc5Fn0uC0BLHXgjS_Gs-24" value="" style="endArrow=none;dashed=1;html=1;dashPattern=1 3;strokeWidth=2;rounded=0;" edge="1" parent="1">
          <mxGeometry width="50" height="50" relative="1" as="geometry">
            <mxPoint x="290" y="270" as="sourcePoint" />
            <mxPoint x="290" y="230" as="targetPoint" />
          </mxGeometry>
        </mxCell>
        <mxCell id="2Lc5Fn0uC0BLHXgjS_Gs-26" value="Send&amp;nbsp; Code via SMS" style="text;html=1;align=center;verticalAlign=middle;whiteSpace=wrap;rounded=0;" vertex="1" parent="1">
          <mxGeometry x="304" y="213" width="120" height="60" as="geometry" />
        </mxCell>
        <mxCell id="2Lc5Fn0uC0BLHXgjS_Gs-28" value="" style="endArrow=classic;html=1;rounded=0;" edge="1" parent="1">
          <mxGeometry width="50" height="50" relative="1" as="geometry">
            <mxPoint x="270" y="260" as="sourcePoint" />
            <mxPoint x="90" y="260" as="targetPoint" />
          </mxGeometry>
        </mxCell>
        <mxCell id="2Lc5Fn0uC0BLHXgjS_Gs-29" value="Code Send to Ueser" style="text;html=1;align=center;verticalAlign=middle;whiteSpace=wrap;rounded=0;" vertex="1" parent="1">
          <mxGeometry x="80" y="228" width="60" height="30" as="geometry" />
        </mxCell>
        <mxCell id="2Lc5Fn0uC0BLHXgjS_Gs-30" value="" style="endArrow=none;dashed=1;html=1;dashPattern=1 3;strokeWidth=2;rounded=0;" edge="1" parent="1">
          <mxGeometry width="50" height="50" relative="1" as="geometry">
            <mxPoint x="80" y="300" as="sourcePoint" />
            <mxPoint x="800" y="300" as="targetPoint" />
          </mxGeometry>
        </mxCell>
        <mxCell id="2Lc5Fn0uC0BLHXgjS_Gs-40" value="" style="endArrow=none;dashed=1;html=1;dashPattern=1 3;strokeWidth=2;rounded=0;" edge="1" parent="1">
          <mxGeometry width="50" height="50" relative="1" as="geometry">
            <mxPoint x="68" y="418" as="sourcePoint" />
            <mxPoint x="68" y="328" as="targetPoint" />
          </mxGeometry>
        </mxCell>
        <mxCell id="2Lc5Fn0uC0BLHXgjS_Gs-41" value="" style="endArrow=none;dashed=1;html=1;dashPattern=1 3;strokeWidth=2;rounded=0;" edge="1" parent="1">
          <mxGeometry width="50" height="50" relative="1" as="geometry">
            <mxPoint x="344.5" y="418" as="sourcePoint" />
            <mxPoint x="344.5" y="328" as="targetPoint" />
          </mxGeometry>
        </mxCell>
        <mxCell id="2Lc5Fn0uC0BLHXgjS_Gs-42" value="" style="endArrow=classic;html=1;rounded=0;" edge="1" parent="1">
          <mxGeometry width="50" height="50" relative="1" as="geometry">
            <mxPoint x="98" y="368" as="sourcePoint" />
            <mxPoint x="138" y="368" as="targetPoint" />
          </mxGeometry>
        </mxCell>
        <mxCell id="2Lc5Fn0uC0BLHXgjS_Gs-43" value="setID" style="text;html=1;align=center;verticalAlign=middle;whiteSpace=wrap;rounded=0;" vertex="1" parent="1">
          <mxGeometry x="88" y="328" width="60" height="30" as="geometry" />
        </mxCell>
        <mxCell id="2Lc5Fn0uC0BLHXgjS_Gs-44" value="" style="endArrow=classic;html=1;rounded=0;" edge="1" parent="1">
          <mxGeometry width="50" height="50" relative="1" as="geometry">
            <mxPoint x="188" y="368" as="sourcePoint" />
            <mxPoint x="418" y="368" as="targetPoint" />
          </mxGeometry>
        </mxCell>
        <mxCell id="2Lc5Fn0uC0BLHXgjS_Gs-45" value="" style="endArrow=none;dashed=1;html=1;dashPattern=1 3;strokeWidth=2;rounded=0;" edge="1" parent="1">
          <mxGeometry width="50" height="50" relative="1" as="geometry">
            <mxPoint x="438" y="414" as="sourcePoint" />
            <mxPoint x="438" y="328" as="targetPoint" />
          </mxGeometry>
        </mxCell>
        <mxCell id="2Lc5Fn0uC0BLHXgjS_Gs-46" value="" style="shape=requiredInterface;html=1;verticalLabelPosition=bottom;sketch=0;" vertex="1" parent="1">
          <mxGeometry x="448" y="368" width="10" height="20" as="geometry" />
        </mxCell>
        <mxCell id="2Lc5Fn0uC0BLHXgjS_Gs-47" value="" style="endArrow=classic;html=1;rounded=0;" edge="1" parent="1">
          <mxGeometry width="50" height="50" relative="1" as="geometry">
            <mxPoint x="418" y="408" as="sourcePoint" />
            <mxPoint x="308" y="408" as="targetPoint" />
          </mxGeometry>
        </mxCell>
        <mxCell id="2Lc5Fn0uC0BLHXgjS_Gs-48" value="" style="endArrow=none;dashed=1;html=1;dashPattern=1 3;strokeWidth=2;rounded=0;" edge="1" parent="1">
          <mxGeometry width="50" height="50" relative="1" as="geometry">
            <mxPoint x="288" y="418" as="sourcePoint" />
            <mxPoint x="288" y="378" as="targetPoint" />
          </mxGeometry>
        </mxCell>
        <mxCell id="2Lc5Fn0uC0BLHXgjS_Gs-49" value="Send&amp;nbsp; Code via SMS" style="text;html=1;align=center;verticalAlign=middle;whiteSpace=wrap;rounded=0;" vertex="1" parent="1">
          <mxGeometry x="220" y="358" width="120" height="60" as="geometry" />
        </mxCell>
        <mxCell id="2Lc5Fn0uC0BLHXgjS_Gs-50" value="" style="endArrow=classic;html=1;rounded=0;" edge="1" parent="1">
          <mxGeometry width="50" height="50" relative="1" as="geometry">
            <mxPoint x="268" y="408" as="sourcePoint" />
            <mxPoint x="88" y="408" as="targetPoint" />
          </mxGeometry>
        </mxCell>
        <mxCell id="2Lc5Fn0uC0BLHXgjS_Gs-51" value="Code Send to Ueser" style="text;html=1;align=center;verticalAlign=middle;whiteSpace=wrap;rounded=0;" vertex="1" parent="1">
          <mxGeometry x="78" y="376" width="60" height="30" as="geometry" />
        </mxCell>
        <mxCell id="2Lc5Fn0uC0BLHXgjS_Gs-52" value="U DB" style="text;html=1;align=center;verticalAlign=middle;whiteSpace=wrap;rounded=0;" vertex="1" parent="1">
          <mxGeometry x="350" y="328" width="60" height="30" as="geometry" />
        </mxCell>
        <mxCell id="2Lc5Fn0uC0BLHXgjS_Gs-53" value="JWT" style="text;html=1;align=center;verticalAlign=middle;whiteSpace=wrap;rounded=0;" vertex="1" parent="1">
          <mxGeometry y="358" width="60" height="30" as="geometry" />
        </mxCell>
        <mxCell id="2Lc5Fn0uC0BLHXgjS_Gs-54" value="JWT" style="text;html=1;align=center;verticalAlign=middle;whiteSpace=wrap;rounded=0;" vertex="1" parent="1">
          <mxGeometry y="213" width="60" height="30" as="geometry" />
        </mxCell>
        <mxCell id="2Lc5Fn0uC0BLHXgjS_Gs-55" value="" style="endArrow=none;dashed=1;html=1;dashPattern=1 3;strokeWidth=2;rounded=0;" edge="1" parent="1">
          <mxGeometry width="50" height="50" relative="1" as="geometry">
            <mxPoint x="60" y="460" as="sourcePoint" />
            <mxPoint x="800" y="460" as="targetPoint" />
          </mxGeometry>
        </mxCell>
        <mxCell id="2Lc5Fn0uC0BLHXgjS_Gs-56" value="" style="endArrow=none;dashed=1;html=1;dashPattern=1 3;strokeWidth=2;rounded=0;" edge="1" parent="1">
          <mxGeometry width="50" height="50" relative="1" as="geometry">
            <mxPoint x="60" y="500" as="sourcePoint" />
            <mxPoint x="60" y="620" as="targetPoint" />
          </mxGeometry>
        </mxCell>
        <mxCell id="2Lc5Fn0uC0BLHXgjS_Gs-57" value="" style="endArrow=none;dashed=1;html=1;dashPattern=1 3;strokeWidth=2;rounded=0;" edge="1" parent="1">
          <mxGeometry width="50" height="50" relative="1" as="geometry">
            <mxPoint x="509.5" y="600" as="sourcePoint" />
            <mxPoint x="509.5" y="490" as="targetPoint" />
          </mxGeometry>
        </mxCell>
        <mxCell id="2Lc5Fn0uC0BLHXgjS_Gs-59" value="" style="endArrow=classic;html=1;rounded=0;" edge="1" parent="1">
          <mxGeometry width="50" height="50" relative="1" as="geometry">
            <mxPoint x="80" y="530" as="sourcePoint" />
            <mxPoint x="500" y="530" as="targetPoint" />
          </mxGeometry>
        </mxCell>
        <mxCell id="2Lc5Fn0uC0BLHXgjS_Gs-61" value="Generted UI&amp;nbsp;" style="text;html=1;align=center;verticalAlign=middle;whiteSpace=wrap;rounded=0;" vertex="1" parent="1">
          <mxGeometry x="200" y="500" width="100" height="30" as="geometry" />
        </mxCell>
        <mxCell id="2Lc5Fn0uC0BLHXgjS_Gs-66" value="" style="endArrow=none;dashed=1;html=1;dashPattern=1 3;strokeWidth=2;rounded=0;" edge="1" parent="1">
          <mxGeometry width="50" height="50" relative="1" as="geometry">
            <mxPoint x="430" y="540" as="sourcePoint" />
            <mxPoint x="430" y="540" as="targetPoint" />
          </mxGeometry>
        </mxCell>
        <mxCell id="2Lc5Fn0uC0BLHXgjS_Gs-67" value="" style="endArrow=none;dashed=1;html=1;dashPattern=1 3;strokeWidth=2;rounded=0;" edge="1" parent="1">
          <mxGeometry width="50" height="50" relative="1" as="geometry">
            <mxPoint x="440" y="490" as="sourcePoint" />
            <mxPoint x="440" y="600" as="targetPoint" />
          </mxGeometry>
        </mxCell>
        <mxCell id="2Lc5Fn0uC0BLHXgjS_Gs-70" value="" style="endArrow=none;dashed=1;html=1;dashPattern=1 3;strokeWidth=2;rounded=0;" edge="1" parent="1">
          <mxGeometry width="50" height="50" relative="1" as="geometry">
            <mxPoint x="600" y="600" as="sourcePoint" />
            <mxPoint x="600" y="490" as="targetPoint" />
          </mxGeometry>
        </mxCell>
        <mxCell id="2Lc5Fn0uC0BLHXgjS_Gs-71" value="" style="endArrow=classic;html=1;rounded=0;" edge="1" parent="1">
          <mxGeometry width="50" height="50" relative="1" as="geometry">
            <mxPoint x="520" y="530" as="sourcePoint" />
            <mxPoint x="590" y="530" as="targetPoint" />
          </mxGeometry>
        </mxCell>
        <mxCell id="2Lc5Fn0uC0BLHXgjS_Gs-73" value="" style="shape=requiredInterface;html=1;verticalLabelPosition=bottom;sketch=0;" vertex="1" parent="1">
          <mxGeometry x="610" y="530" width="10" height="20" as="geometry" />
        </mxCell>
        <mxCell id="2Lc5Fn0uC0BLHXgjS_Gs-74" value="" style="endArrow=classic;html=1;rounded=0;" edge="1" parent="1">
          <mxGeometry width="50" height="50" relative="1" as="geometry">
            <mxPoint x="590" y="550" as="sourcePoint" />
            <mxPoint x="450" y="550" as="targetPoint" />
          </mxGeometry>
        </mxCell>
        <mxCell id="2Lc5Fn0uC0BLHXgjS_Gs-75" value="U DB (Repero , ETA )" style="text;html=1;align=center;verticalAlign=middle;whiteSpace=wrap;rounded=0;" vertex="1" parent="1">
          <mxGeometry x="384" y="540" width="60" height="30" as="geometry" />
        </mxCell>
        <mxCell id="2Lc5Fn0uC0BLHXgjS_Gs-76" value="" style="endArrow=classic;html=1;rounded=0;" edge="1" parent="1">
          <mxGeometry width="50" height="50" relative="1" as="geometry">
            <mxPoint x="450" y="590" as="sourcePoint" />
            <mxPoint x="710" y="590" as="targetPoint" />
          </mxGeometry>
        </mxCell>
        <mxCell id="2Lc5Fn0uC0BLHXgjS_Gs-77" value="" style="endArrow=none;dashed=1;html=1;dashPattern=1 3;strokeWidth=2;rounded=0;" edge="1" parent="1">
          <mxGeometry width="50" height="50" relative="1" as="geometry">
            <mxPoint x="720" y="600" as="sourcePoint" />
            <mxPoint x="720" y="490" as="targetPoint" />
          </mxGeometry>
        </mxCell>
        <mxCell id="2Lc5Fn0uC0BLHXgjS_Gs-78" value="Provisinig (Ddeployment)" style="text;html=1;align=center;verticalAlign=middle;whiteSpace=wrap;rounded=0;" vertex="1" parent="1">
          <mxGeometry x="610" y="555" width="80" height="30" as="geometry" />
        </mxCell>
      </root>
    </mxGraphModel>
  </diagram>
</mxfile>
